<svg width="126" height="19" viewBox="0 0 126 19" fill="none" xmlns="http://www.w3.org/2000/svg">
<path d="M32.1877 14H30.0267V5.22159C30.0267 4.61053 30.1459 4.09634 30.3844 3.67903C30.6278 3.25676 30.9681 2.93881 31.4053 2.72518C31.8474 2.50659 32.3716 2.3973 32.9777 2.3973C33.1764 2.3973 33.3676 2.4122 33.5515 2.44201C33.7353 2.46685 33.9141 2.49914 34.088 2.53888L34.0656 4.15596C33.9712 4.13112 33.8719 4.11373 33.7676 4.1038C33.6632 4.09386 33.5415 4.08889 33.4024 4.08889C33.1441 4.08889 32.923 4.1336 32.7392 4.22303C32.5603 4.30748 32.4237 4.43417 32.3293 4.60308C32.2349 4.77199 32.1877 4.97816 32.1877 5.22159V14ZM33.7974 5.93698V7.45718H28.8269V5.93698H33.7974ZM34.5798 10.0505V9.89397C34.5798 9.30278 34.6643 8.75879 34.8332 8.26199C35.0021 7.76022 35.248 7.32553 35.5709 6.9579C35.8939 6.59027 36.2913 6.30461 36.7632 6.10092C37.2352 5.89227 37.7767 5.78794 38.3878 5.78794C38.9988 5.78794 39.5428 5.89227 40.0198 6.10092C40.4967 6.30461 40.8966 6.59027 41.2195 6.9579C41.5474 7.32553 41.7958 7.76022 41.9647 8.26199C42.1336 8.75879 42.2181 9.30278 42.2181 9.89397V10.0505C42.2181 10.6367 42.1336 11.1807 41.9647 11.6824C41.7958 12.1792 41.5474 12.6139 41.2195 12.9865C40.8966 13.3542 40.4992 13.6398 40.0272 13.8435C39.5553 14.0472 39.0137 14.149 38.4027 14.149C37.7916 14.149 37.2476 14.0472 36.7707 13.8435C36.2987 13.6398 35.8988 13.3542 35.5709 12.9865C35.248 12.6139 35.0021 12.1792 34.8332 11.6824C34.6643 11.1807 34.5798 10.6367 34.5798 10.0505ZM36.726 9.89397V10.0505C36.726 10.3883 36.7558 10.7037 36.8154 10.9969C36.875 11.29 36.9694 11.5483 37.0986 11.7719C37.2327 11.9905 37.4066 12.1618 37.6202 12.286C37.8338 12.4102 38.0947 12.4723 38.4027 12.4723C38.7008 12.4723 38.9566 12.4102 39.1702 12.286C39.3839 12.1618 39.5553 11.9905 39.6844 11.7719C39.8136 11.5483 39.908 11.29 39.9676 10.9969C40.0322 10.7037 40.0645 10.3883 40.0645 10.0505V9.89397C40.0645 9.56608 40.0322 9.25807 39.9676 8.96993C39.908 8.67682 39.8111 8.41848 39.677 8.19492C39.5478 7.9664 39.3764 7.78755 39.1628 7.65838C38.9492 7.52921 38.6908 7.46463 38.3878 7.46463C38.0847 7.46463 37.8264 7.52921 37.6128 7.65838C37.4041 7.78755 37.2327 7.9664 37.0986 8.19492C36.9694 8.41848 36.875 8.67682 36.8154 8.96993C36.7558 9.25807 36.726 9.56608 36.726 9.89397ZM43.1943 10.0505V9.89397C43.1943 9.30278 43.2787 8.75879 43.4477 8.26199C43.6166 7.76022 43.8625 7.32553 44.1854 6.9579C44.5083 6.59027 44.9058 6.30461 45.3777 6.10092C45.8497 5.89227 46.3912 5.78794 47.0022 5.78794C47.6133 5.78794 48.1573 5.89227 48.6342 6.10092C49.1111 6.30461 49.5111 6.59027 49.834 6.9579C50.1619 7.32553 50.4103 7.76022 50.5792 8.26199C50.7481 8.75879 50.8326 9.30278 50.8326 9.89397V10.0505C50.8326 10.6367 50.7481 11.1807 50.5792 11.6824C50.4103 12.1792 50.1619 12.6139 49.834 12.9865C49.5111 13.3542 49.1136 13.6398 48.6417 13.8435C48.1697 14.0472 47.6282 14.149 47.0171 14.149C46.4061 14.149 45.8621 14.0472 45.3852 13.8435C44.9132 13.6398 44.5133 13.3542 44.1854 12.9865C43.8625 12.6139 43.6166 12.1792 43.4477 11.6824C43.2787 11.1807 43.1943 10.6367 43.1943 10.0505ZM45.3405 9.89397V10.0505C45.3405 10.3883 45.3703 10.7037 45.4299 10.9969C45.4895 11.29 45.5839 11.5483 45.7131 11.7719C45.8472 11.9905 46.0211 12.1618 46.2347 12.286C46.4483 12.4102 46.7091 12.4723 47.0171 12.4723C47.3152 12.4723 47.5711 12.4102 47.7847 12.286C47.9983 12.1618 48.1697 11.9905 48.2989 11.7719C48.4281 11.5483 48.5224 11.29 48.5821 10.9969C48.6466 10.7037 48.6789 10.3883 48.6789 10.0505V9.89397C48.6789 9.56608 48.6466 9.25807 48.5821 8.96993C48.5224 8.67682 48.4256 8.41848 48.2914 8.19492C48.1623 7.9664 47.9909 7.78755 47.7772 7.65838C47.5636 7.52921 47.3053 7.46463 47.0022 7.46463C46.6992 7.46463 46.4409 7.52921 46.2272 7.65838C46.0186 7.78755 45.8472 7.9664 45.7131 8.19492C45.5839 8.41848 45.4895 8.67682 45.4299 8.96993C45.3703 9.25807 45.3405 9.56608 45.3405 9.89397ZM56.9134 12.2413V2.55379H59.0744V14H57.1295L56.9134 12.2413ZM51.8162 10.0654V9.90887C51.8162 9.29284 51.8858 8.73395 52.0249 8.23218C52.164 7.72545 52.3677 7.29075 52.6359 6.92809C52.9042 6.56543 53.2346 6.28474 53.627 6.08602C54.0195 5.8873 54.4666 5.78794 54.9684 5.78794C55.4403 5.78794 55.8527 5.8873 56.2054 6.08602C56.5631 6.28474 56.8662 6.56791 57.1146 6.93554C57.3679 7.2982 57.5716 7.72793 57.7256 8.22473C57.8796 8.71656 57.9914 9.25558 58.061 9.84181V10.1846C57.9914 10.746 57.8796 11.2676 57.7256 11.7495C57.5716 12.2314 57.3679 12.6537 57.1146 13.0163C56.8662 13.374 56.5631 13.6522 56.2054 13.851C55.8477 14.0497 55.4304 14.149 54.9535 14.149C54.4517 14.149 54.0046 14.0472 53.6121 13.8435C53.2246 13.6398 52.8967 13.3542 52.6285 12.9865C52.3652 12.6189 52.164 12.1867 52.0249 11.6899C51.8858 11.1931 51.8162 10.6516 51.8162 10.0654ZM53.9624 9.90887V10.0654C53.9624 10.3982 53.9872 10.7087 54.0369 10.9969C54.0915 11.285 54.1785 11.5409 54.2977 11.7644C54.4219 11.983 54.5809 12.1544 54.7746 12.2786C54.9734 12.3978 55.2143 12.4574 55.4975 12.4574C55.8651 12.4574 56.1682 12.3755 56.4066 12.2115C56.6451 12.0426 56.8264 11.8116 56.9506 11.5185C57.0798 11.2254 57.1543 10.8876 57.1742 10.505V9.52882C57.1593 9.21584 57.1146 8.93515 57.04 8.68675C56.9705 8.43339 56.8662 8.21728 56.7271 8.03843C56.5929 7.85958 56.424 7.72048 56.2203 7.62112C56.0216 7.52176 55.7856 7.47208 55.5124 7.47208C55.2342 7.47208 54.9957 7.53667 54.797 7.66583C54.5983 7.79003 54.4368 7.96143 54.3126 8.18002C54.1934 8.39861 54.104 8.65694 54.0443 8.95502C53.9897 9.24813 53.9624 9.56608 53.9624 9.90887ZM68.2627 14.149C67.6367 14.149 67.0753 14.0497 66.5785 13.851C66.0817 13.6473 65.6595 13.3666 65.3117 13.0089C64.9689 12.6512 64.7056 12.2364 64.5218 11.7644C64.338 11.2875 64.2461 10.7808 64.2461 10.2442V9.94613C64.2461 9.33507 64.333 8.77618 64.5069 8.26944C64.6808 7.76271 64.9292 7.32304 65.2521 6.95045C65.58 6.57785 65.9774 6.29219 66.4444 6.09347C66.9114 5.88978 67.438 5.78794 68.0242 5.78794C68.5955 5.78794 69.1023 5.88233 69.5444 6.07111C69.9866 6.2599 70.3567 6.52817 70.6548 6.87593C70.9578 7.22368 71.1863 7.64099 71.3403 8.12785C71.4944 8.60975 71.5714 9.14629 71.5714 9.73748V10.6317H65.1627V9.20094H69.4625V9.03699C69.4625 8.73892 69.4078 8.47313 69.2985 8.23963C69.1942 8.00117 69.0352 7.81239 68.8216 7.67329C68.608 7.53418 68.3347 7.46463 68.0019 7.46463C67.7187 7.46463 67.4753 7.52673 67.2716 7.65093C67.0679 7.77513 66.9015 7.94901 66.7723 8.17257C66.6481 8.39613 66.5537 8.65943 66.4891 8.96247C66.4295 9.26055 66.3997 9.58844 66.3997 9.94613V10.2442C66.3997 10.5671 66.4444 10.8652 66.5338 11.1384C66.6282 11.4117 66.7599 11.6477 66.9288 11.8464C67.1027 12.0451 67.3113 12.1991 67.5548 12.3084C67.8031 12.4177 68.0838 12.4723 68.3968 12.4723C68.7843 12.4723 69.1445 12.3978 69.4774 12.2488C69.8152 12.0948 70.1058 11.8638 70.3492 11.5558L71.3925 12.6885C71.2236 12.9319 70.9926 13.1654 70.6995 13.3889C70.4113 13.6125 70.0636 13.7963 69.6562 13.9404C69.2488 14.0795 68.7843 14.149 68.2627 14.149ZM74.5223 5.93698L75.8562 8.38867L77.2274 5.93698H79.5151L77.2348 9.87907L79.6195 14H77.3243L75.8711 11.4067L74.418 14H72.1228L74.5074 9.87907L72.2271 5.93698H74.5223ZM82.7046 7.48699V17.1H80.5584V5.93698H82.5481L82.7046 7.48699ZM87.8092 9.87907V10.0356C87.8092 10.6218 87.7396 11.1658 87.6005 11.6675C87.4664 12.1693 87.2677 12.6065 87.0044 12.9791C86.7411 13.3467 86.4132 13.6349 86.0207 13.8435C85.6332 14.0472 85.1861 14.149 84.6794 14.149C84.1875 14.149 83.7603 14.0497 83.3976 13.851C83.035 13.6522 82.7294 13.374 82.481 13.0163C82.2376 12.6537 82.0414 12.2339 81.8923 11.757C81.7433 11.28 81.629 10.7683 81.5495 10.2219V9.812C81.629 9.22578 81.7433 8.68924 81.8923 8.20237C82.0414 7.71055 82.2376 7.28578 82.481 6.92809C82.7294 6.56543 83.0325 6.28474 83.3902 6.08602C83.7528 5.8873 84.1776 5.78794 84.6645 5.78794C85.1762 5.78794 85.6258 5.88481 86.0133 6.07857C86.4057 6.27232 86.7336 6.55052 86.9969 6.91319C87.2652 7.27585 87.4664 7.70806 87.6005 8.20983C87.7396 8.71159 87.8092 9.268 87.8092 9.87907ZM85.6556 10.0356V9.87907C85.6556 9.53628 85.6258 9.22081 85.5661 8.93267C85.5115 8.63956 85.4221 8.38371 85.2979 8.16511C85.1786 7.94652 85.0197 7.77761 84.8209 7.65838C84.6272 7.53418 84.3912 7.47208 84.113 7.47208C83.8199 7.47208 83.569 7.51928 83.3604 7.61367C83.1567 7.70806 82.9902 7.84468 82.8611 8.02353C82.7319 8.20237 82.635 8.416 82.5705 8.6644C82.5059 8.91279 82.4661 9.19349 82.4512 9.50647V10.5423C82.4761 10.9099 82.5456 11.2403 82.6599 11.5334C82.7741 11.8215 82.9505 12.0501 83.189 12.219C83.4274 12.3879 83.7404 12.4723 84.1279 12.4723C84.4111 12.4723 84.6496 12.4102 84.8433 12.286C85.0371 12.1569 85.1935 11.9805 85.3128 11.757C85.437 11.5334 85.5239 11.2751 85.5736 10.982C85.6282 10.6888 85.6556 10.3734 85.6556 10.0356ZM91.4085 2.55379V14H89.2549V2.55379H91.4085ZM92.8393 10.0505V9.89397C92.8393 9.30278 92.9237 8.75879 93.0926 8.26199C93.2615 7.76022 93.5074 7.32553 93.8304 6.9579C94.1533 6.59027 94.5507 6.30461 95.0227 6.10092C95.4946 5.89227 96.0361 5.78794 96.6472 5.78794C97.2583 5.78794 97.8023 5.89227 98.2792 6.10092C98.7561 6.30461 99.156 6.59027 99.479 6.9579C99.8068 7.32553 100.055 7.76022 100.224 8.26199C100.393 8.75879 100.478 9.30278 100.478 9.89397V10.0505C100.478 10.6367 100.393 11.1807 100.224 11.6824C100.055 12.1792 99.8068 12.6139 99.479 12.9865C99.156 13.3542 98.7586 13.6398 98.2866 13.8435C97.8147 14.0472 97.2732 14.149 96.6621 14.149C96.051 14.149 95.5071 14.0472 95.0301 13.8435C94.5582 13.6398 94.1583 13.3542 93.8304 12.9865C93.5074 12.6139 93.2615 12.1792 93.0926 11.6824C92.9237 11.1807 92.8393 10.6367 92.8393 10.0505ZM94.9854 9.89397V10.0505C94.9854 10.3883 95.0152 10.7037 95.0748 10.9969C95.1345 11.29 95.2288 11.5483 95.358 11.7719C95.4922 11.9905 95.666 12.1618 95.8797 12.286C96.0933 12.4102 96.3541 12.4723 96.6621 12.4723C96.9602 12.4723 97.216 12.4102 97.4297 12.286C97.6433 12.1618 97.8147 11.9905 97.9438 11.7719C98.073 11.5483 98.1674 11.29 98.227 10.9969C98.2916 10.7037 98.3239 10.3883 98.3239 10.0505V9.89397C98.3239 9.56608 98.2916 9.25807 98.227 8.96993C98.1674 8.67682 98.0705 8.41848 97.9364 8.19492C97.8072 7.9664 97.6358 7.78755 97.4222 7.65838C97.2086 7.52921 96.9503 7.46463 96.6472 7.46463C96.3442 7.46463 96.0858 7.52921 95.8722 7.65838C95.6635 7.78755 95.4922 7.9664 95.358 8.19492C95.2288 8.41848 95.1345 8.67682 95.0748 8.96993C95.0152 9.25807 94.9854 9.56608 94.9854 9.89397ZM103.943 7.69564V14H101.797V5.93698H103.816L103.943 7.69564ZM106.372 5.88481L106.335 7.87449C106.23 7.85958 106.104 7.84716 105.955 7.83723C105.811 7.82232 105.679 7.81487 105.56 7.81487C105.257 7.81487 104.993 7.85462 104.77 7.9341C104.551 8.00862 104.367 8.1204 104.218 8.26944C104.074 8.41848 103.965 8.59981 103.891 8.81344C103.821 9.02706 103.781 9.27049 103.771 9.54373L103.339 9.40959C103.339 8.88795 103.391 8.40855 103.496 7.97136C103.6 7.52921 103.751 7.1442 103.95 6.81631C104.154 6.48842 104.402 6.23506 104.695 6.05621C104.988 5.87736 105.324 5.78794 105.701 5.78794C105.821 5.78794 105.942 5.79788 106.066 5.81775C106.191 5.83265 106.293 5.85501 106.372 5.88481ZM110.948 14.149C110.322 14.149 109.76 14.0497 109.263 13.851C108.767 13.6473 108.344 13.3666 107.997 13.0089C107.654 12.6512 107.39 12.2364 107.207 11.7644C107.023 11.2875 106.931 10.7808 106.931 10.2442V9.94613C106.931 9.33507 107.018 8.77618 107.192 8.26944C107.366 7.76271 107.614 7.32304 107.937 6.95045C108.265 6.57785 108.662 6.29219 109.129 6.09347C109.596 5.88978 110.123 5.78794 110.709 5.78794C111.28 5.78794 111.787 5.88233 112.229 6.07111C112.671 6.2599 113.042 6.52817 113.34 6.87593C113.643 7.22368 113.871 7.64099 114.025 8.12785C114.179 8.60975 114.256 9.14629 114.256 9.73748V10.6317H107.848V9.20094H112.147V9.03699C112.147 8.73892 112.093 8.47313 111.983 8.23963C111.879 8.00117 111.72 7.81239 111.506 7.67329C111.293 7.53418 111.02 7.46463 110.687 7.46463C110.404 7.46463 110.16 7.52673 109.956 7.65093C109.753 7.77513 109.586 7.94901 109.457 8.17257C109.333 8.39613 109.239 8.65943 109.174 8.96247C109.114 9.26055 109.085 9.58844 109.085 9.94613V10.2442C109.085 10.5671 109.129 10.8652 109.219 11.1384C109.313 11.4117 109.445 11.6477 109.614 11.8464C109.787 12.0451 109.996 12.1991 110.24 12.3084C110.488 12.4177 110.769 12.4723 111.082 12.4723C111.469 12.4723 111.829 12.3978 112.162 12.2488C112.5 12.0948 112.791 11.8638 113.034 11.5558L114.077 12.6885C113.908 12.9319 113.677 13.1654 113.384 13.3889C113.096 13.6125 112.748 13.7963 112.341 13.9404C111.934 14.0795 111.469 14.149 110.948 14.149ZM117.624 7.69564V14H115.478V5.93698H117.498L117.624 7.69564ZM120.054 5.88481L120.017 7.87449C119.912 7.85958 119.786 7.84716 119.637 7.83723C119.492 7.82232 119.361 7.81487 119.242 7.81487C118.939 7.81487 118.675 7.85462 118.452 7.9341C118.233 8.00862 118.049 8.1204 117.9 8.26944C117.756 8.41848 117.647 8.59981 117.572 8.81344C117.503 9.02706 117.463 9.27049 117.453 9.54373L117.021 9.40959C117.021 8.88795 117.073 8.40855 117.177 7.97136C117.282 7.52921 117.433 7.1442 117.632 6.81631C117.836 6.48842 118.084 6.23506 118.377 6.05621C118.67 5.87736 119.006 5.78794 119.383 5.78794C119.502 5.78794 119.624 5.79788 119.748 5.81775C119.872 5.83265 119.974 5.85501 120.054 5.88481Z" fill="#4D585E"/>
<path d="M11.3818 0.667969L20.9081 5.16797V14.168L11.3818 18.668L1.8555 14.168V5.16797L11.3818 0.667969Z" fill="#4D585E"/>
</svg>
